<?xml version="1.0" encoding="utf-8"?>
<svg version="1.1" xmlns:xlink="http://www.w3.org/1999/xlink" width="100px" height="150px" xmlns="http://www.w3.org/2000/svg">
  <g>
    <path d="M 0 0  L 100 0  L 100 150  L 0 150  L 0 0  " fill-rule="nonzero" fill="#cccccc" stroke="none" />
    <path d="M 7 7  L 93 7  L 93 143  L 7 143  L 7 7  " fill-rule="nonzero" fill="#ffffff" stroke="none" />
    <path d="M 59.5 37.5  C 55.3 37.5  52 34.2  52 30  C 52 25.8  55.3 22.5  59.5 22.5  C 63.7 22.5  67 25.8  67 30  C 67 34.2  63.7 37.5  59.5 37.5  " fill-rule="nonzero" fill="#cccccc" stroke="none" />
    <path d="M 10 141  L 10 68.95  L 30.25 36.2  L 58.6 62.4  L 74.8 55.85  L 91 62.4  L 91 141  L 10 141  " fill-rule="nonzero" fill="#169bd5" stroke="none" />
  </g>
</svg>