<svg t="1666110149652" class="icon" viewBox="0 0 1024 1024" version="1.1" xmlns="http://www.w3.org/2000/svg" p-id="2153" width="200" height="200"><path d="M483.11523555 432.44657778c-24.63857778-33.21856-36.61368889-55.77614222-35.92419555-67.67388445 1.03310222-17.84490667 18.79153778-18.70165333 26.51477333-7.32728888 5.14958222 7.58442667 8.28643555 32.58595555 9.40942222 75.0023111zM542.60736 434.76764445c2.47921778-41.28540445 7.80515555-66.26304 15.98122667-74.93404445 12.26296889-13.0048 26.41692445-2.24711111 25.02200888 11.43125333-0.93070222 9.12042667-14.59768889 30.28764445-41.00323555 63.50279112zM587.00572445 474.56711111c28.43534222-30.03164445 48.57173333-45.74208 60.40803555-47.12903111 17.75388445-2.08099555 21.68149333 15.2576 11.81923555 24.83996445-6.57408 6.38862222-30.64945778 13.81831111-72.2272711 22.28906666zM595.64145778 532.24675555c41.08743111-4.72860445 66.6112-3.81952 76.57016889 2.72611556 14.93788445 9.81788445 6.80049778 25.62503111-6.91313778 26.62627556-9.14204445 0.66787555-32.36181333-9.11701333-69.65703111-29.35239112zM563.32515555 582.61048889c34.51335111 22.78968889 53.48124445 39.89048889 56.90254223 51.30581333 5.13137778 17.12355555-11.26172445 24.00256-22.41080889 15.95392-7.43196445-5.36462222-18.93034667-27.78453333-34.49287111-67.25973333zM508.04053333 601.28711111c11.79079111 39.64245333 15.32814222 64.93639111 10.61091556 75.87953778-7.07470222 16.41585778-24.05376 11.14794667-27.42158222-2.18453334-2.24483555-8.88604445 3.35872-33.45180445 16.81066666-73.69500444zM453.05173333 578.87857778c-16.44999111 37.94716445-29.99864889 59.5968-40.64597333 64.94890667-15.97098667 8.02702222-25.59203555-6.92337778-19.60391111-19.30012445 3.9936-8.25116445 24.07651555-23.46780445 60.24988444-45.64764445zM425.07150222 526.77404445c-36.99256889 18.49571555-61.28753778 26.37141333-72.88376889 23.62709333-17.39548445-4.11648-15.1552-21.75431111-2.6112-27.38517333 8.36266667-3.75466667 33.52803555-2.50083555 75.49496889 3.75808zM437.96252445 469.04888889c-40.22613333-9.61080889-63.89987555-19.19431111-71.0200889-28.75050667-10.67804445-14.33486222 2.37454222-26.40554667 15.60348445-22.65656889 8.81891555 2.49969778 27.29187555 19.63576889 55.41660445 51.40707556z" fill="#FEE97D" p-id="2154"></path><path d="M537.98001778 489.61194667c72.13966222-112.29639111 114.98951111-165.30204445 128.55068444-159.01468445 20.34119111 9.43104-30.52316445 63.24906667-43.68839111 76.53717333-8.77681778 8.85873778-37.06424889 36.352-84.86229333 82.47751112zM548.16995555 511.40266667c127.44590222-39.65383111 194.34154667-52.71438222 200.6892089-39.18165334 9.51978667 20.29909333-64.03868445 28.83128889-82.66524445 30.54819556-12.41770667 1.14460445-51.75864889 4.02204445-118.02396445 8.63345778zM542.48106667 536.82858667c123.11893333 51.54360889 182.75896889 84.53916445 178.92238222 98.98552888-5.75601778 21.66897778-67.58855111-19.07712-82.96106667-29.73468444-10.24796445-7.10542222-42.23544889-30.18865778-95.96017777-69.25084444zM521.91118222 551.84270222C583.09404445 670.46627555 607.57333333 734.07829333 595.34677333 742.67875555c-18.33756445 12.90012445-39.51274667-58.05852445-44.43818666-76.10481777-3.28362667-12.02972445-12.94904889-50.27384889-28.99740445-114.73123556zM497.47740445 549.56714667c-29.38083555 130.19818667-51.51857778 194.6624-66.4120889 193.39150222-22.33912889-1.90464 7.05080889-69.87320889 14.87758223-86.86364444 5.21784889-11.32657778 22.39601778-46.83548445 51.53450667-106.52785778zM479.31733333 532.50048c-106.19676445 80.85048889-164.59207111 116.00440889-175.18364444 105.45834667-15.89020445-15.81966222 50.31480889-48.99498667 67.23128889-56.97991112 11.27651555-5.32252445 47.26101333-21.48124445 107.95235555-48.47843555zM476.672 507.64003555c-133.32138667-6.32604445-200.65052445-16.93354667-201.98627555-31.82136888-2.00248889-22.33116445 70.03704889-5.18940445 88.12771555-0.43235556 12.06044445 3.17098667 50.01329778 13.92298667 113.85856 32.25372444zM490.56995555 485.93123555c-98.06392889-90.54435555-142.82183111-141.94688-134.27598222-154.20984888 12.81934222-18.39445333 56.98787555 41.04305778 67.7888 56.31544888 7.19985778 10.18197333 29.36263111 42.81344 66.48718222 97.8944z" fill="#FC6275" p-id="2155"></path><path d="M441.45777778 309.47555555m-11.37777778 0a11.37777778 11.37777778 0 1 0 22.75555555 0 11.37777778 11.37777778 0 1 0-22.75555555 0Z" fill="#FEE97D" p-id="2156"></path><path d="M588.04110222 315.20426667m-8.71588295-7.31349448a11.37777778 11.37777778 0 1 0 17.4317659 14.62698895 11.37777778 11.37777778 0 1 0-17.4317659-14.62698895Z" fill="#FC6275" p-id="2157"></path><path d="M696.64768 413.81432889m-1.97573063-11.2049243a11.37777778 11.37777778 0 1 0 3.95146126 22.4098486 11.37777778 11.37777778 0 1 0-3.95146126-22.4098486Z" fill="#FEE97D" p-id="2158"></path><path d="M716.46094222 559.16544m5.68888889-9.85344455a11.37777778 11.37777778 0 1 0-11.37777778 19.7068891 11.37777778 11.37777778 0 1 0 11.37777778-19.7068891Z" fill="#FC6275" p-id="2159"></path><path d="M638.208 683.24579555m10.69161358-3.89142869a11.37777778 11.37777778 0 1 0-21.38322716 7.78285739 11.37777778 11.37777778 0 1 0 21.38322716-7.78285739Z" fill="#FEE97D" p-id="2160"></path><path d="M498.50595555 727.99687111m10.69161359 3.8914287a11.37777778 11.37777778 0 1 0-21.38322717-7.78285739 11.37777778 11.37777778 0 1 0 21.38322717 7.78285739Z" fill="#FC6275" p-id="2161"></path><path d="M362.72128 672.47900445m5.68888889 9.85344454a11.37777778 11.37777778 0 1 0-11.37777778-19.7068891 11.37777778 11.37777778 0 1 0 11.37777778 19.7068891Z" fill="#FEE97D" p-id="2162"></path><path d="M294.39089778 542.67107555m-1.97573063 11.20492431a11.37777778 11.37777778 0 1 0 3.95146126-22.40984861 11.37777778 11.37777778 0 1 0-3.95146126 22.40984861Z" fill="#FC6275" p-id="2163"></path><path d="M325.48636445 399.3088m-8.71588296 7.31349447a11.37777778 11.37777778 0 1 0 17.4317659-14.62698894 11.37777778 11.37777778 0 1 0-17.4317659 14.62698894Z" fill="#FEE97D" p-id="2164"></path><path d="M427.08764445 277.61550222C399.91751111 247.92177778 386.71132445 227.66933333 387.46680889 216.86044445c1.13436445-16.21333333 25.43388445-22.03989333 32.40391111 7.44106666 4.64782222 19.65511111 7.05422222 37.4272 7.2192 53.31399111zM599.02748445 288.48924445c7.36369778-39.57077333 15.58869333-62.30698667 24.67612444-68.20750223 13.63057778-8.85191111 32.90794667 7.04739555 13.55776 30.35818667-12.90012445 15.53976889-25.64551111 28.15658667-38.23388444 37.84931556zM721.37386667 399.23256889c24.52593778-31.91466667 42.17742222-48.43747555 52.95217778-49.57070222 16.16440889-1.69870222 26.12337778 21.21955555-1.70097778 33.20490666-18.54919111 7.98947555-35.63292445 13.44512-51.25006222 16.36579556zM742.85624889 560.14279111c39.30225778-8.68352 63.44362667-9.99537778 72.42752-3.93671111 13.47356445 9.08856889 6.37041778 33.04561778-22.64746667 24.34275555-19.34563555-5.80266667-35.93898667-12.60544-49.78005333-20.40604444zM651.84881778 702.52088889c35.68753778 18.61176889 55.02520889 33.12526222 58.01187555 43.54048 4.47943111 15.62396445-16.36124445 29.41041778-32.99555555 4.09031111-11.08878222-16.88007111-19.42869333-32.75662222-25.01632-47.62965333zM500.44814222 754.62883555c12.07523555 38.39544889 15.48515555 62.33201778 10.23317333 71.8085689-7.87911111 14.21539555-32.36522667 9.22737778-26.22350222-20.43904 4.09486222-19.77685333 9.42421333-36.90040889 15.99032889-51.3695289zM343.20156445 697.92654222c-16.71850667 36.61368889-30.19889778 56.68408889-40.44458667 60.2112-15.36682667 5.29066667-30.22506667-14.80021333-5.81063111-32.73614222 16.27591111-11.95804445 31.69507555-21.11715555 46.25521778-27.47505778zM269.87861333 541.50940445c-36.63758222 16.66503111-59.98023111 22.96718222-70.02567111 18.90872888-15.06986667-6.08824889-13.10264889-30.99989333 17.09056-28.51953778 20.12956445 1.65432889 37.77422222 4.85831111 52.93511111 9.6108089zM302.80817778 379.27594667c-39.90186667-5.28270222-63.03744-12.30620445-69.40558223-21.07164445-9.55392-13.14929778 5.31569778-33.23221333 29.60611556-15.12903111 16.19399111 12.06840889 29.46048 24.13568 39.79946667 36.20067556z" fill="#FC6275" p-id="2165"></path><path d="M342.50979555 313.62389333c-55.85123555-38.27712-89.20177778-64.30264889-100.0493511-78.07658666-6.14058667-7.79605333-14.05838222-19.20910222-12.5292089-26.55573334 2.02524445-9.73482667 14.37582222-8.74496 32.06144 7.75395556 11.78965333 10.99889778 38.62869333 43.29244445 80.51712 96.87836444zM516.24618667 257.43701333c-11.26286222-66.76593778-15.70816-108.83527111-13.33589334-126.20572444 1.34257778-9.83267555 4.05276445-23.45642667 10.39928889-27.46140444 8.40931555-5.30432 16.27704889 4.26666667 16.69347556 28.45013333 0.27875555 16.12231111-4.30762667 57.86055111-13.75573333 125.21699555zM687.72750222 331.23896889c37.29635555-56.51114667 62.73706667-90.30997333 76.31872-101.39648 7.68796445-6.27598222 18.96106667-14.39288889 26.33386667-12.99114667 9.76896 1.85457778 8.99413333 14.21994667-7.19416889 32.19114667-10.79182222 11.9808-42.61091555 39.37848889-95.45955555 82.19648zM766.62101333 473.06865778c64.89543111-19.31605333 106.10915555-28.85404445 123.64003556-28.61738667 9.92256 0.13425778 23.77500445 1.16394667 28.52408889 6.97457778 6.28963555 7.70161778-2.25166222 16.67640889-26.20302223 20.03626666-15.96871111 2.24142222-57.95612445 2.77617778-125.96110222 1.60654223zM731.59111111 655.24622222c65.57582222 16.86641778 105.81560889 29.91559111 120.71936 39.14865778 8.43662222 5.22581333 19.78026667 13.24259555 20.85660444 20.67000889 1.42677333 9.83950222-10.51761778 13.13336889-32.77937777 3.67843556-14.84117333-6.30328889-51.10670222-27.46936889-108.79658667-63.49824zM595.43096889 760.03555555c39.39214222 55.07185778 61.82912 90.93461333 67.31093333 107.5871289 3.10385778 9.42648889 6.64120889 22.85795555 2.69198223 29.24088888-5.23377778 8.45368889-16.50005333 3.29955555-27.47505778-18.25223111-7.31818667-14.37013333-21.49262222-53.89425778-42.52785778-118.57578667zM424.25002667 756.34232889c-13.41212445 66.36885333-24.33706667 107.23555555-32.77710222 122.60352-4.77866667 8.69831111-12.19015111 20.44586667-19.55043556 21.91018666-9.75189333 1.93877333-13.66698667-9.81674667-5.38965334-32.54272 5.51822222-15.15064889 24.75804445-52.47431111 57.71719112-111.97098666zM289.19466667 645.03011555c-47.39413333 48.35555555-78.81614222 76.68053333-94.26488889 84.97152-8.74268445 4.69333333-21.35722667 10.50851555-28.32725333 7.72778667-9.23534222-3.68526222-6.11669333-15.67516445 13.20277333-30.22734222 12.87964445-9.70183111 49.34314667-30.52544 109.38936889-62.47196445zM258.97415111 469.33447111c-67.68412445 1.86140445-109.96280889 0.4096-126.83377778-4.35768889-9.55050667-2.69767111-22.66453333-7.27722667-25.74677333-14.11982222-4.08348445-9.06581333 6.48988445-15.52497778 30.49585778-12.57244445 16.00398222 1.96835555 56.69888 12.31872 122.08355555 31.04995556z" fill="#FCD25A" p-id="2166"></path></svg>