<?xml version="1.0" encoding="utf-8"?>
<svg version="1.1" xmlns:xlink="http://www.w3.org/1999/xlink" width="48px" height="48px" xmlns="http://www.w3.org/2000/svg">
  <defs>
    <mask fill="white" id="clip5">
      <path d="M 24 48  C 10.68 48  0 37.32  0 24  L 0 24  C 0 10.68  10.68 0  24 0  L 24 0  C 37.32 0  48 10.68  48 24  L 48 24  C 48 37.32  37.32 48  24 48  " fill-rule="evenodd" />
    </mask>
  </defs>
  <g>
    <path d="M 0 0  L 48 0  L 48 48  L 0 48  L 0 0  " fill-rule="nonzero" fill="#cccccc" stroke="none" mask="url(#clip5)" />
    <path d="M 3 3  L 45 3  L 45 45  L 3 45  L 3 3  " fill-rule="nonzero" fill="#ffffff" stroke="none" mask="url(#clip5)" />
    <path d="M 28.56 14.4  C 26.544 14.4  24.96 12.816  24.96 10.8  C 24.96 8.784  26.544 7.2  28.56 7.2  C 30.576 7.2  32.16 8.784  32.16 10.8  C 32.16 12.816  30.576 14.4  28.56 14.4  " fill-rule="nonzero" fill="#cccccc" stroke="none" mask="url(#clip5)" />
    <path d="M 4 44  L 4 22  L 14 12  L 28 20  L 36 18  L 44 20  L 44 44  L 4 44  " fill-rule="nonzero" fill="#169bd5" stroke="none" mask="url(#clip5)" />
  </g>
</svg>